<mxfile host="app.diagrams.net" modified="2024-02-01T22:33:15.936Z" agent="Mozilla/5.0 (Macintosh; Intel Mac OS X 10_15_7) AppleWebKit/537.36 (KHTML, like Gecko) Chrome/119.0.0.0 Safari/537.36" etag="qSTwVVIYUs11aW-b6JYk" version="23.1.1" type="github">
  <diagram id="R2lEEEUBdFMjLlhIrx00" name="Page-1">
    <mxGraphModel dx="504" dy="469" grid="1" gridSize="10" guides="1" tooltips="1" connect="1" arrows="1" fold="1" page="1" pageScale="1" pageWidth="850" pageHeight="1100" math="0" shadow="0" extFonts="Permanent Marker^https://fonts.googleapis.com/css?family=Permanent+Marker">
      <root>
        <mxCell id="0" />
        <mxCell id="1" parent="0" />
        <mxCell id="n6qlhuI8QrUAEuEiPk_b-12" value="HotelChain" style="rounded=0;whiteSpace=wrap;html=1;fillColor=#ffe6cc;strokeColor=#d79b00;" vertex="1" parent="1">
          <mxGeometry x="160" y="180" width="160" height="50" as="geometry" />
        </mxCell>
        <mxCell id="n6qlhuI8QrUAEuEiPk_b-13" value="&lt;u&gt;&lt;font style=&quot;font-size: 10px;&quot;&gt;ChainID&lt;/font&gt;&lt;/u&gt;" style="ellipse;whiteSpace=wrap;html=1;fillColor=#e1d5e7;strokeColor=#9673a6;" vertex="1" parent="1">
          <mxGeometry x="110" y="330" width="70" height="40" as="geometry" />
        </mxCell>
        <mxCell id="n6qlhuI8QrUAEuEiPk_b-18" value="&lt;span style=&quot;font-size: 10px;&quot;&gt;Address&lt;br&gt;&lt;/span&gt;" style="ellipse;whiteSpace=wrap;html=1;fillColor=#e1d5e7;strokeColor=#9673a6;" vertex="1" parent="1">
          <mxGeometry x="150" y="380" width="70" height="40" as="geometry" />
        </mxCell>
        <mxCell id="n6qlhuI8QrUAEuEiPk_b-19" value="&lt;span style=&quot;font-size: 10px;&quot;&gt;NumberOfHotels&lt;br&gt;&lt;/span&gt;" style="ellipse;whiteSpace=wrap;html=1;fillColor=#e1d5e7;strokeColor=#9673a6;" vertex="1" parent="1">
          <mxGeometry x="200" y="420" width="80" height="40" as="geometry" />
        </mxCell>
        <mxCell id="n6qlhuI8QrUAEuEiPk_b-20" value="&lt;span style=&quot;font-size: 10px;&quot;&gt;ContactEmail&lt;br&gt;&lt;/span&gt;" style="ellipse;whiteSpace=wrap;html=1;fillColor=#e1d5e7;strokeColor=#9673a6;" vertex="1" parent="1">
          <mxGeometry x="260" y="380" width="70" height="40" as="geometry" />
        </mxCell>
        <mxCell id="n6qlhuI8QrUAEuEiPk_b-21" value="&lt;span style=&quot;font-size: 10px;&quot;&gt;PhoneNumber&lt;br&gt;&lt;/span&gt;" style="ellipse;whiteSpace=wrap;html=1;fillColor=#e1d5e7;strokeColor=#9673a6;" vertex="1" parent="1">
          <mxGeometry x="290" y="330" width="70" height="40" as="geometry" />
        </mxCell>
      </root>
    </mxGraphModel>
  </diagram>
</mxfile>
